# AST/ASF file generated using VICON BodyLanguage
# -----------------------------------------------
:version 1.10
:name VICON
:units
  mass 1.0
  length 0.45
  angle deg
:documentation
   .ast/.asf automatically generated from VICON data using
   VICON BodyBuilder and BodyLanguage model FoxedUp or BRILLIANT.MOD
:root
   order TX TY TZ RX RY RZ
   axis XYZ
   position 0 0 0  
   orientation 0 0 0 
:bonedata
  begin
     id 1 
     name lhipjoint
     direction 0.734343 -0.627749 0.258209 
     length 2.5437 
     axis 0 0 0  XYZ
  end
  begin
     id 2 
     name lfemur
     direction 0.34202 -0.939693 0  
     length 6.7391  
     axis 0 0 20  XYZ
    dof rx ry rz
    limits (-160.0 20.0)
           (-70.0 70.0)
           (-60.0 70.0)
  end
  begin
     id 3 
     name ltibia
     direction 0.34202 -0.939693 0   
     length 7.21536   
     axis 0 0 20   XYZ
    dof rx
    limits (-10.0 170.0)
  end
  begin
     id 4 
     name lfoot
     direction 0.0489572 -0.134509 0.989702   
     length 1.61313   
     axis -90 7.62852e-016 20   XYZ
    dof rx rz
    limits (-45.0 90.0)
           (-70.0 20.0)
  end
  begin
     id 5 
     name ltoes
     direction 1.53451e-011 -4.21692e-011 1   
     length 0.823104   
     axis -90 7.62852e-016 20   XYZ
    dof rx
    limits (-90.0 20.0)
  end
  begin
     id 6 
     name rhipjoint
     direction -0.746398 -0.615468 0.253157   
     length 2.59446  
     axis 0 0 0  XYZ 
  end
  begin
     id 7 
     name rfemur
     direction -0.34202 -0.939693 0   
     length 6.7075   
     axis 0 0 -20   XYZ
    dof rx ry rz
    limits (-160.0 20.0)
           (-70.0 70.0)
           (-70.0 60.0)
  end
  begin
     id 8 
     name rtibia
     direction -0.34202 -0.939693 0   
     length 7.27262   
     axis 0 0 -20   XYZ
    dof rx
    limits (-10.0 170.0)
 end
 begin
     id 9 
     name rfoot
     direction -0.0455203 -0.125066 0.991104   
     length 1.91095  
     axis -90 -7.62852e-016 -20   XYZ
    dof rx rz
    limits (-45.0 90.0)
           (-20.0 70.0)
  end
  begin
     id 10 
     name rtoes
     direction -1.53601e-011 -4.21913e-011 1   
     length 0.969037   
     axis -90 -7.62852e-016 -20   XYZ
    dof rx
    limits (-90.0 20.0)
  end
  begin
     id 11 
     name lowerback
     direction 0.0181546 0.999122 -0.0377542   
     length 1.99916   
     axis 0 0 0   XYZ
    dof rx ry rz
    limits (-20.0 45.0)
           (-30.0 30.0)
           (-30.0 30.0)
  end
  begin
     id 12 
     name upperback
     direction 0.0203486 0.99589 0.0882534   
     length 1.951   
     axis 0 0 0   XYZ
    dof rx ry rz
    limits (-20.0 45.0)
           (-30.0 30.0)
           (-30.0 30.0)
  end
  begin
     id 13 
     name thorax
     direction 0.0131685 0.994241 0.106355   
     length 1.97461   
     axis 0 0 0   XYZ
    dof rx ry rz
    limits (-20.0 45.0)
           (-30.0 30.0)
           (-30.0 30.0)
  end
  begin
     id 14 
     name lowerneck
     direction -0.0281395 0.999325 0.023617   
     length 1.7959   
     axis 0 0 0   XYZ
    dof rx ry rz
    limits (-20.0 45.0)
           (-30.0 30.0)
           (-30.0 30.0)
  end
  begin
     id 15 
     name upperneck
     direction 0.0288721 0.991984 -0.123019   
     length 1.79917   
     axis 0 0 0   XYZ
    dof rx ry rz
    limits (-20.0 45.0)
           (-30.0 30.0)
           (-30.0 30.0)
  end
  begin
     id 16
     name head
     direction 0.0133797 0.998944 -0.0439492  
     length 1.80902  
     axis 0 0 0   XYZ
    dof rx ry rz
    limits (-20.0 45.0)
           (-30.0 30.0)
           (-30.0 30.0)
  end
  begin
     id 17 
     name lclavicle
     direction 0.919195 0.377107 0.113449  
     length 3.17815  
     axis 0 0 0   XYZ
    dof ry rz
    limits (-20.0 10.0)
           (0.0 20.0)
  end
  begin
     id 18 
     name lhumerus
     direction 1 -4.48959e-011 2.13129e-027   
     length 4.84137   
     axis 180 -30 -90   XYZ
    dof rx ry rz
    limits (-60.0 90.0)
           (-90.0 90.0)
           (-90.0 90.0)
  end
  begin
     id 19
     name lradius
     direction 1 -4.48957e-011 -6.30627e-028   
     length 3.2452   
     axis 180 -30 -90   XYZ
    dof rx
    limits (-10.0 170.0)
  end
  begin
     id 20
     name lwrist
     direction 1 -4.4901e-011 9.13299e-027   
     length 1.6226   
     axis -6.84618e-015 90 90   XYZ
    dof ry
    limits (-180.0 0.0)
 end
  begin
     id 21 
     name lhand
     direction 1 -4.48816e-011 1.82293e-026   
     length 0.521221   
     axis -1.16502e-014 90 90   XYZ
    dof rx rz
    limits (-90.0 90.0)
           (-45.0 45.0)
  end
  begin
     id 22 
     name lfingers
     direction 1 -4.49108e-011 3.65687e-026   
     length 0.420221   
     axis -2.33008e-014 90 90   XYZ
    dof rx
    limits (0.0 90.0)
  end
  begin
     id 23
     name lthumb
     direction 0.707107 -6.34943e-011 0.707107   
     length 0.603356   
     axis -90 45 5.69224e-014   XYZ
    dof rx rz
    limits (-45.0 45.0)
           (-45.0 45.0)
  end
  begin
     id 24 
     name rclavicle
     direction -0.90847 0.38596 0.160368   
     length 3.12973  
     axis 0 0 0   XYZ 
    dof ry rz
    limits (-10.0 20.0)
           (-20.0 0.0)
  end
  begin
     id 25 
     name rhumerus
     direction -1 -4.48974e-011 4.47268e-028  
     length 4.72284   
     axis 180 30 90   XYZ
    dof rx ry rz
    limits (-90.0 60.0)
           (-90.0 90.0)
           (-90.0 90.0)
  end
  begin
     id 26 
     name rradius
     direction -1 -4.48969e-011 3.43203e-027   
     length 3.23459   
     axis 180 30 90   XYZ
    dof rx
    limits (-10.0 170.0)
  end
  begin
     id 27 
     name rwrist
     direction -1 -4.48969e-011 9.12911e-027   
     length 1.6173   
     axis -6.84618e-015 -90 -90   XYZ
    dof ry
    limits (-180.0 0.0)
  end
  begin
     id 28
     name rhand
     direction -1 -4.49194e-011 1.83006e-026   
     length 0.307416   
     axis -1.16502e-014 -90 -90   XYZ
    dof rx rz
    limits (-90.0 90.0)
           (-45.0 45.0)
  end
  begin
     id 29
     name rfingers
     direction -1 -4.48423e-011 3.63103e-026   
     length 0.247847   
     axis -2.33008e-014 -90 -90   XYZ
    dof rx
    limits (0.0 90.0)
  end
  begin
     id 30
     name rthumb
     direction -0.707107 -6.34802e-011 0.707107   
     length 0.35586   
     axis -90 -45 -5.69224e-014   XYZ
    dof rx rz
    limits (-45.0 45.0)
           (-45.0 45.0)
  end
:hierarchy
  begin
    root lhipjoint rhipjoint lowerback
    lhipjoint lfemur
    lfemur ltibia
    ltibia lfoot
    lfoot ltoes
    rhipjoint rfemur
    rfemur rtibia
    rtibia rfoot
    rfoot rtoes
    lowerback upperback
    upperback thorax
    thorax lowerneck lclavicle rclavicle
    lowerneck upperneck
    upperneck head
    lclavicle lhumerus
    lhumerus lradius
    lradius lwrist
    lwrist lhand lthumb
    lhand lfingers
    rclavicle rhumerus
    rhumerus rradius
    rradius rwrist
    rwrist rhand rthumb
    rhand rfingers
  end

#!OML:ASF H:\Terrain\Patient Classification 1\Animal1\Tuesday\Animal1.ASF
:FULLY-SPECIFIED
:DEGREES
408
root -5.13292 14.4402 -3.25971 28.2875 -10.0356 -5.69243
lowerback 35.1102 1.844 -10.8424
upperback 14.3831 -0.978672 4.54776
thorax -1.62537 -1.28743 10.895
lowerneck -6.05619 1.9697 0.256222
upperneck -17.3604 2.61107 0.0648797
head -4.70277 1.23906 -0.0765413
rclavicle 1.74931e-014 1.86858e-014
rhumerus -20.1352 -25.1791 11.9827
rradius 46.3638
rwrist -44.9159
rhand -37.8421 30.1834
rfingers 7.12502
rthumb -10.887 0.485665
lclavicle 1.74931e-014 1.86858e-014
lhumerus 50.2935 -10.2523 66.1948
lradius 53.5111
lwrist -8.06279
lhand -13.3252 53.322
lfingers 7.12502
lthumb 12.7797 -637.089
rfemur -69.022 -2.49186 4.67098
rtibia 48.5055
rfoot 6.71809 -5.76543
rtoes -33.7874
lfemur -80.5649 16.2206 -25.4333
ltibia 64.9537
lfoot -13.4633 -2.47773
ltoes -1.53746
409
root -5.28861 14.4147 -3.24139 28.3854 -8.51127 -5.14236
lowerback 35.301 1.34325 -10.0523
upperback 14.6167 -1.35558 4.12294
thorax -1.37715 -1.43004 10.1196
lowerneck -6.26143 1.97087 -0.160621
upperneck -17.6145 2.73795 0.845243
head -4.78261 1.29764 0.258654
rclavicle 5.24792e-014 -3.57812e-014
rhumerus -19.4524 -30.2537 8.82044
rradius 45.4014
rwrist -41.7425
rhand -38.2898 29.3947
rfingers 7.12502
rthumb -11.3188 -0.279875
lclavicle 5.24792e-014 -3.57812e-014
lhumerus 50.3882 -10.9638 64.9526
lradius 54.6256
lwrist -5.11054
lhand -12.0059 53.1239
lfingers 7.12502
lthumb 14.0513 -637.371
rfemur -68.6636 -3.08294 4.80966
rtibia 49.1674
rfoot 3.2784 -9.31626
rtoes -28.6652
lfemur -80.929 15.7185 -25.5165
ltibia 64.8439
lfoot -13.4526 -2.9325
ltoes -5.32671
410
root -5.44923 14.3854 -3.22487 28.5613 -7.04656 -4.64489
lowerback 35.5393 0.857275 -9.24834
upperback 14.7966 -1.71213 3.68295
thorax -1.22192 -1.5488 9.31928
lowerneck -6.76933 2.2122 -0.214044
upperneck -17.7043 3.12032 1.07859
head -4.7308 1.4908 0.343881
rclavicle 8.11041e-014 -4.25399e-014
rhumerus -18.3459 -33.3166 6.49501
rradius 44.1805
rwrist -41.0335
rhand -38.9408 28.2647
rfingers 7.12502
rthumb -11.9465 -1.37438
lclavicle 8.11041e-014 -4.25399e-014
lhumerus 50.3321 -11.7194 63.4541
lradius 55.4424
lwrist -2.75538
lhand -11.1559 52.1485
lfingers 7.12502
lthumb 14.8703 -638.405
rfemur -68.2495 -3.39517 4.82134
rtibia 49.5766
rfoot -0.135491 -11.9422
rtoes -23.1911
lfemur -81.393 15.3629 -25.6179
ltibia 64.6633
lfoot -13.4726 -3.44583
ltoes -9.767
411
root -5.60655 14.3443 -3.20722 29.0386 -5.62109 -4.06647
lowerback 35.6755 0.308101 -8.5788
upperback 14.7265 -2.16304 3.44361
thorax -1.29164 -1.70278 8.84761
lowerneck -5.24622 1.72645 -1.62845
upperneck -19.6091 2.78487 2.99266
head -5.10979 1.28917 1.13424
rclavicle -1.59028e-015 -8.34896e-015
rhumerus -16.2759 -36.2662 3.9022
rradius 42.6222
rwrist -40.5105
rhand -39.4509 28.5153
rfingers 7.12502
rthumb -12.4384 -1.0946
lclavicle -1.59028e-015 -8.34896e-015
lhumerus 49.9218 -12.1559 61.7139
lradius 56.1947
lwrist -0.731661
lhand -10.2877 51.0811
lfingers 7.12502
lthumb 15.7066 -639.536
rfemur -68.1752 -3.98437 5.04324
rtibia 49.9892
rfoot 0.0655733 -13.8117
rtoes -30.2376
lfemur -82.1734 14.9049 -25.8405
ltibia 64.445
lfoot -13.6268 -4.3098
ltoes -12.6802
412
root -5.75873 14.3104 -3.19356 29.5867 -4.45824 -3.53148
lowerback 35.7328 -0.216081 -8.02268
upperback 14.5568 -2.60795 3.36027
thorax -1.44564 -1.8612 8.6067
lowerneck -4.68391 1.58286 -3.44556
upperneck -20.102 2.7444 3.90628
head -5.38791 1.34237 1.7235
rclavicle 1.27222e-014 -3.37934e-014
rhumerus -13.3805 -39.7703 0.744048
rradius 40.9979
rwrist -39.4782
rhand -39.5733 29.2671
rfingers 7.12502
rthumb -12.5564 -0.335625
lclavicle 1.27222e-014 -3.37934e-014
lhumerus 49.0161 -12.4458 60.1289
lradius 56.9963
lwrist 0.502282
lhand -8.89915 49.9194
lfingers 7.12502
lthumb 17.0435 -640.808
rfemur -68.5084 -4.49828 5.22145
rtibia 50.6764
rfoot 2.1776 -15.006
rtoes -36.3117
lfemur -82.9081 14.5387 -25.9549
ltibia 64.1615
lfoot -13.5535 -5.60407
ltoes -9.88754
413
root -5.90646 14.2982 -3.18675 30.0065 -3.55055 -2.94443
lowerback 35.9778 -0.669408 -7.54601
upperback 14.4735 -3.00814 3.23038
thorax -1.57907 -2.00689 8.34544
lowerneck -4.81635 1.35245 -5.37466
upperneck -20.1175 2.58935 4.89781
head -5.39736 1.35261 2.36989
rclavicle -4.6118e-014 5.1684e-015
rhumerus -9.83283 -43.5586 -2.98919
rradius 39.2538
rwrist -38.2198
rhand -39.5078 29.3443
rfingers 7.12502
rthumb -12.4933 -0.262213
lclavicle -4.6118e-014 5.1684e-015
lhumerus 47.9672 -12.6725 58.3756
lradius 57.9057
lwrist 0.765972
lhand -7.42914 48.5469
lfingers 7.12502
lthumb 18.458 -642.309
rfemur -69.2611 -4.95604 5.16097
rtibia 51.8317
rfoot 1.6157 -15.9114
rtoes -35.9579
lfemur -83.3079 14.2323 -26.0674
ltibia 63.7883
lfoot -13.5678 -6.20391
ltoes -9.01922
414
root -6.04688 14.2877 -3.17806 30.572 -2.75733 -2.1899
lowerback 36.167 -1.12862 -7.03231
upperback 14.519 -3.4103 2.82911
thorax -1.56948 -2.14799 7.76964
lowerneck -5.87764 1.13297 -6.45827
upperneck -19.8162 2.46944 5.70512
head -5.14012 1.34338 2.81999
rclavicle 3.18055e-015 1.35174e-014
rhumerus -5.94163 -47.6769 -7.48048
rradius 37.392
rwrist -36.854
rhand -40.1484 28.9708
rfingers 7.12502
rthumb -13.1108 -0.597065
lclavicle 3.18055e-015 1.35174e-014
lhumerus 47.482 -12.8361 55.199
lradius 58.8883
lwrist 1.03056
lhand -5.96514 47.4159
lfingers 7.12502
lthumb 19.8659 -643.579
rfemur -70.5433 -5.72686 5.04832
rtibia 53.3496
rfoot -1.74374 -16.2623
rtoes -29.8981
lfemur -83.7379 13.7596 -26.3926
ltibia 63.3156
lfoot -13.8995 -5.85544
ltoes -14.2779
415
root -6.18484 14.2529 -3.15761 31.0866 -2.33085 -1.59446
lowerback 36.3956 -1.37655 -6.6119
upperback 14.6806 -3.60866 2.15203
thorax -1.49244 -2.18817 6.88535
lowerneck -6.99707 1.09006 -6.1147
upperneck -19.7211 2.49027 5.82767
head -4.92604 1.34333 2.80819
rclavicle -3.18055e-014 5.56597e-015
rhumerus -1.04018 -53.9348 -14.6902
rradius 35.7195
rwrist -33.393
rhand -40.8706 29.2668
rfingers 7.12502
rthumb -13.8069 -0.25497
lclavicle -3.18055e-014 5.56597e-015
lhumerus 47.3886 -13.1027 51.0505
lradius 59.5739
lwrist 1.05265
lhand -3.8895 46.1909
lfingers 7.12502
lthumb 21.8601 -645.024
rfemur -71.9498 -6.34658 5.18326
rtibia 54.9977
rfoot -3.38956 -16.036
rtoes -26.0607
lfemur -84.1295 13.5521 -26.5102
ltibia 62.9224
lfoot -14.0136 -5.71075
ltoes -16.5692
416
root -6.31012 14.2436 -3.13556 31.4502 -2.12571 -1.28986
lowerback 36.8459 -1.62434 -6.16157
upperback 14.4831 -3.80211 1.82743
thorax -1.87571 -2.21616 6.38422
lowerneck -6.51287 1.07618 -7.19056
upperneck -20.1548 2.54314 6.16056
head -5.15935 1.42791 3.09497
rclavicle 2.22639e-014 3.77691e-014
rhumerus 4.52598 -56.2729 -20.3066
rradius 33.5424
rwrist -33.6462
rhand -41.7721 30.4267
rfingers 7.12502
rthumb -14.6756 0.966043
lclavicle 2.22639e-014 3.77691e-014
lhumerus 46.0403 -13.4871 48.0494
lradius 60.1383
lwrist 0.0961967
lhand -1.77341 44.7565
lfingers 7.12502
lthumb 23.8907 -646.709
rfemur -73.0473 -6.66065 5.57177
rtibia 56.3728
rfoot -3.82422 -15.9109
rtoes -25.8651
lfemur -84.1975 13.6187 -26.3298
ltibia 62.4979
lfoot -14.0625 -5.82115
ltoes -16.3223
417
root -6.42586 14.2496 -3.1131 32.0458 -2.01734 -0.831075
lowerback 37.0952 -1.90461 -5.7794
upperback 14.3537 -4.0419 1.48189
thorax -2.11219 -2.27739 5.90683
lowerneck -6.50796 1.01666 -8.14907
upperneck -20.5229 2.55271 6.50638
head -5.2916 1.48998 3.37217
rclavicle -9.06458e-014 4.09496e-014
rhumerus 12.1147 -58.927 -28.4527
rradius 31.5326
rwrist -33.5625
rhand -43.2903 31.7133
rfingers 7.12502
rthumb -16.1379 2.36519
lclavicle -9.06458e-014 4.09496e-014
lhumerus 44.728 -13.8767 44.5726
lradius 60.8378
lwrist -0.833106
lhand -0.542303 43.1647
lfingers 7.12502
lthumb 25.0708 -648.461
rfemur -74.2 -6.99135 5.6887
rtibia 57.3882
rfoot -4.24807 -15.8383
rtoes -25.1122
lfemur -84.4539 13.6559 -26.5445
ltibia 61.9949
lfoot -14.1797 -5.90573
ltoes -17.301
418
root -6.53847 14.26 -3.09318 32.8575 -1.79714 -0.255758
lowerback 37.0144 -2.29814 -5.35099
upperback 14.189 -4.38252 1.16341
thorax -2.27535 -2.38816 5.46086
lowerneck -6.14884 1.13716 -8.98553
upperneck -21.2242 2.76651 6.65499
head -5.60339 1.65603 3.56117
rclavicle -2.54444e-014 3.18055e-015
rhumerus 19.7369 -60.1852 -36.882
rradius 30.1662
rwrist -34.534
rhand -44.6682 31.1116
rfingers 7.12502
rthumb -17.4643 1.87608
lclavicle -2.54444e-014 3.18055e-015
lhumerus 43.2182 -14.4367 41.2473
lradius 61.3586
lwrist -2.09912
lhand 0.253379 40.896
lfingers 7.12502
lthumb 25.833 -650.838
rfemur -75.321 -7.49537 5.79505
rtibia 58.0473
rfoot -4.39243 -15.957
rtoes -24.9627
lfemur -84.95 13.4774 -26.9131
ltibia 61.3642
lfoot -13.9963 -5.88357
ltoes -18.9844
419
root -6.65256 14.2834 -3.07051 33.6379 -1.56272 0.350276
lowerback 36.8198 -2.7284 -4.87493
upperback 14.1013 -4.74929 0.801379
thorax -2.32867 -2.51464 4.94719
lowerneck -5.85729 1.3313 -9.73372
upperneck -22.0209 3.0801 6.74708
head -5.94716 1.87509 3.71497
rclavicle 2.06736e-014 1.19271e-014
rhumerus 28.1898 -60.77 -46.1528
rradius 28.8123
rwrist -35.9402
rhand -45.7645 27.8715
rfingers 7.12502
rthumb -18.5192 -1.26697
lclavicle 2.06736e-014 1.19271e-014
lhumerus 41.508 -14.928 38.0508
lradius 61.8165
lwrist -3.78922
lhand 0.984001 38.583
lfingers 7.12502
lthumb 26.5325 -653.255
rfemur -76.2159 -7.99729 5.95917
rtibia 58.4787
rfoot -4.30147 -16.2525
rtoes -26.8577
lfemur -85.2351 13.1811 -27.1582
ltibia 60.5891
lfoot -13.6973 -5.75183
ltoes -20.5119
